P2
6 6
255
00 01 02 03 04 05  
06 07 08 09 10 11  
12 13 18 19 20 21 
23 24 25 26 27 28  
30 31 32 33 34 35 
37 38 39 40 41 42     


