P2
6 6
255
0 1 2 3 4 5
12 13 14 9 10 11
0 0 0 15 16 17
18 19 20 21 22 23
30 31 32 27 28 29
193 127 0 33 34 35
