P2
2 2
255
0 5
30 35
