P2
32 24
255
232 212 209 207 203 195 187 186 185 184 183 185 176 159 175 174 169 169 172 222 248 248 248 248 248 248 248 248 248 248 248 248
200 212 208 157 130 155 189 185 181 180 179 172 177 193 162 171 169 172 176 204 248 248 248 248 248 248 248 248 248 248 248 248
195 200 140 121 114 124 140 184 177 169 196 177 155 148 157 169 164 174 184 247 248 248 248 248 248 248 248 248 248 248 248 248
190 187 116 121 116 128 151 145 174 161 187 176 165 153 147 151 164 169 190 248 248 248 248 225 183 220 230 245 248 248 248 248
197 173 116 123 120 129 151 151 158 155 180 162 174 155 149 147 162 163 199 197 202 235 211 138 130 153 171 161 230 243 247 248
206 181 108 118 150 148 156 137 172 150 153 153 153 160 146 173 167 185 189 205 233 199 195 173 134 112 129 125 141 214 215 225
207 208 115 140 156 156 154 158 149 154 146 148 148 148 146 175 182 198 197 194 195 195 197 196 132 125 113 124 132 157 214 222
209 192 145 151 148 146 148 143 196 152 148 140 143 142 141 156 184 194 200 197 196 193 186 170 140 120 122 125 122 173 214 222
207 207 167 152 145 135 133 139 189 169 148 140 134 134 136 178 187 199 203 201 197 195 181 189 153 114 123 117 124 152 205 220
184 140 120 226 140 130 129 132 194 189 165 140 129 145 150 160 162 172 197 198 197 200 181 161 145 144 120 114 135 143 184 226
134 120 114 217 216 189 205 203 197 193 186 185 159 160 164 154 148 142 164 195 197 196 181 164 131 134 120 125 132 143 209 218
120 114 107 109 222 147 206 207 198 195 188 166 156 158 156 156 147 143 143 191 190 190 154 134 132 116 106 123 132 171 229 226
113 108 98 107 210 134 200 201 199 196 190 163 143 152 153 156 154 143 143 213 183 209 195 196 146 115 121 116 124 175 226 208
112 106 111 104 109 158 197 197 196 196 190 155 133 140 153 152 156 146 141 209 192 182 140 145 115 119 105 126 120 139 222 229
111 106 107 107 105 164 159 195 195 195 188 156 135 135 138 149 148 142 140 202 170 149 134 113 171 126 107 128 152 149 235 242
110 98 107 96 105 212 151 193 191 206 131 138 127 142 135 137 141 141 201 191 174 132 145 97 133 161 152 159 140 144 148 188
116 93 104 106 105 103 147 199 202 100 93 141 205 160 132 141 150 151 207 126 122 124 155 106 140 151 153 137 142 142 143 196
101 85 96 103 85 103 111 122 94 93 93 92 182 212 106 106 108 113 111 123 118 155 148 156 151 146 148 129 148 143 143 161
101 86 96 102 98 104 149 99 94 94 93 100 184 213 196 193 113 114 110 114 119 150 159 152 160 138 130 128 144 142 137 140
94 85 95 95 102 98 152 90 91 97 105 190 179 188 164 190 208 112 117 121 110 150 151 153 144 139 137 124 143 141 139 143
94 87 93 98 102 83 146 86 117 191 164 202 174 161 158 162 193 179 214 222 155 147 146 135 139 133 130 125 142 145 143 132
102 88 93 98 100 91 135 85 147 182 181 184 200 199 197 198 211 221 231 243 152 120 148 147 123 123 128 119 113 146 140 140
97 90 94 100 99 94 83 87 106 248 248 246 233 222 193 179 166 160 149 144 138 112 133 124 135 138 134 139 122 130 140 134
89 94 96 99 99 98 91 142 96 130 163 167 156 160 159 147 163 193 210 190 194 129 118 135 111 142 130 126 120 132 141 134
