P2
2 2
255
0 5
37 42
