P2
2 2
255
2 3
8 9
