P2
2 2
255
24 25
30 31
