P2
3 3
255
21 22 23
27 28 29
33 34 35
