P2
2 2
255
16 17
22 23
