P2
2 2
255
28 29
34 35
