P2
2 2
255
4 5
10 11
