P2
3 3
255
0 1 2
6 7 8
12 13 14
