P2
2 2
255
14 15
20 21
