P2
2 2
255
26 27
32 33
