P2
2 2
255
12 13
18 19
