P2
15 13
255
49 0 0 0 0 0 0 0 0 0 0 0 0 0 0
0 0 0 0 0 0 0 0 0 65 2 0 0 0 0
0 0 132 44 173 251 0 0 0 0 0 96 254 190 79
127 0 0 0 96 254 190 79 127 0 0 0 96 254 190
79 127 0 0 0 96 254 190 79 127 0 0 198 96 254
190 79 127 0 0 0 128 254 190 79 127 0 0 0 96
254 190 79 127 0 0 0 128 254 190 79 127 0 0 0
0 0 0 0 0 0 0 0 0 0 0 0 0 0 0
0 0 0 0 0 0 0 0 0 0 0 0 0 0 0
0 80 224 203 0 0 0 0 0 4 0 0 0 0 0
0 0 0 0 0 0 0 0 0 0 0 0 0 0 0
0 0 0 32 228 203 0 0 0 0 0 255 255 255 255
255 255 255 255 0 0 0 0 0 0 0 0 48 228 203
