P2
2 2
255
0 9
10 255
