P2
15 13
255
49 48 51 51 50 53 54 57 56 57 56 56 56 57 58
50 51 53 54 55 56 60 157 182 60 60 59 59 58 61
51 53 187 196 52 59 189 182 182 59 63 60 63 61 62
56 57 164 210 57 61 64 146 25 64 182 150 171 64 62
59 62 170 59 63 131 155 66 66 68 183 193 186 183 67
59 213 174 189 65 113 104 69 176 170 68 58 125 230 210
61 173 199 178 78 168 68 69 175 171 166 71 73 188 147
62 63 69 68 164 168 188 69 156 173 68 71 72 73 69
61 65 67 69 183 172 148 72 71 74 73 218 211 73 72
65 67 71 73 75 72 202 70 72 73 74 222 228 63 72
68 70 70 72 74 171 206 204 74 75 74 76 74 71 72
69 74 73 72 75 166 192 204 75 77 76 74 75 74 71
71 72 73 74 74 75 76 75 74 74 76 75 73 74 73
