P2
3 3
255
3 4 5
9 10 11
15 16 17
