P2
3 3
255
18 19 20
24 25 26
30 31 32
